<svg xmlns="http://www.w3.org/2000/svg" viewBox="0 0 64 64" role="img" aria-label="SnowBreak">
  <defs>
    <linearGradient id="fav-bg" x1="0" y1="0" x2="1" y2="1">
      <stop offset="0%" stop-color="#38bdf8"/>
      <stop offset="55%" stop-color="#1d4ed8"/>
      <stop offset="100%" stop-color="#0b1d3a"/>
    </linearGradient>
    <linearGradient id="fav-snow" x1="0" y1="0" x2="0" y2="1">
      <stop offset="0%" stop-color="#ffffff"/>
      <stop offset="100%" stop-color="#dbeafe"/>
    </linearGradient>
  </defs>
  <rect width="64" height="64" rx="14" fill="url(#fav-bg)"/>
  <path d="M6 50 L22 22 L32 38 L44 16 L58 50 Z" fill="#0b1d3a" opacity="0.5"/>
  <path d="M10 50 L24 26 L32 40 L46 20 L56 50 Z" fill="url(#fav-snow)"/>
  <path d="M20 32 L24 26 L28 32 L26 34 L24 32 Z" fill="#ffffff"/>
  <path d="M42 26 L46 20 L52 30 L48 28 L46 30 Z" fill="#ffffff"/>
  <path d="M6 56 Q32 62 58 54 L58 58 Q32 64 6 60 Z" fill="#fb923c"/>
  <g stroke="#ffffff" stroke-width="2" stroke-linecap="round" opacity="0.95">
    <line x1="50" y1="8" x2="50" y2="20"/>
    <line x1="44" y1="14" x2="56" y2="14"/>
    <line x1="46" y1="10" x2="54" y2="18"/>
    <line x1="54" y1="10" x2="46" y2="18"/>
  </g>
</svg>
