<svg xmlns="http://www.w3.org/2000/svg" viewBox="0 0 320 72" role="img" aria-label="SnowBreak">
  <defs>
    <linearGradient id="sbl-mark" x1="0" y1="0" x2="1" y2="1">
      <stop offset="0%" stop-color="rgba(255,255,255,0.18)"/>
      <stop offset="100%" stop-color="rgba(255,255,255,0.06)"/>
    </linearGradient>
  </defs>
  <rect x="2" y="6" width="60" height="60" rx="16" fill="url(#sbl-mark)" stroke="rgba(255,255,255,0.35)" stroke-width="1"/>
  <path d="M14 54 L26 32 L34 44 L46 26 L54 54 Z" fill="#ffffff"/>
  <path d="M22 38 L26 32 L30 38 L28 40 L26 38 Z" fill="#bfdbfe"/>
  <path d="M42 32 L46 26 L52 36 L48 34 L46 36 Z" fill="#bfdbfe"/>
  <path d="M8 60 Q32 64 56 58 L56 62 Q32 66 8 62 Z" fill="#fb923c"/>
  <g stroke="#ffffff" stroke-width="1.4" stroke-linecap="round" opacity="0.85">
    <line x1="50" y1="14" x2="50" y2="22"/>
    <line x1="46" y1="18" x2="54" y2="18"/>
    <line x1="47.5" y1="15.5" x2="52.5" y2="20.5"/>
    <line x1="52.5" y1="15.5" x2="47.5" y2="20.5"/>
  </g>
  <text x="76" y="40" font-family="'Segoe UI','Helvetica Neue',Inter,Arial,sans-serif" font-size="26" font-weight="800" fill="#ffffff" letter-spacing="-0.4">SnowBreak</text>
  <text x="76" y="58" font-family="'Segoe UI','Helvetica Neue',Inter,Arial,sans-serif" font-size="9.5" font-weight="600" fill="rgba(255,255,255,0.78)" letter-spacing="3.6">ESTACIONES &#183; NIEVE &#183; FORFAITS</text>
</svg>
